# xmcd
#
# Track frame offsets:
#	150
#	18225
#	30372
#	56734
#	72000
#	96534
#	114858
#	131974
#	145499
#	160951
#	174833
#	194583
#
# Disc length: 2860 seconds
#
# Revision: 2
# Processed by: cddbd v1.4PL0 Copyright (c) Steve Scherf et al.
# Submitted via: CDmax 2.0
#
DISCID=a60b2a0c
DTITLE=Kevin Deal - Honky Tonks -N- Churches
DYEAR=1999
DGENRE=Country
TTITLE0=Boomtown
TTITLE1=Take Me Away
TTITLE2=Life's Railway to Heaven
TTITLE3=Death of a Dream
TTITLE4=Honky Tonks -N- Churches
TTITLE5=You Deserve Better Than Me
TTITLE6=Poison Well
TTITLE7=I Look In Dancehalls
TTITLE8=Jump Off The Wagon
TTITLE9=Hard On You
TTITLE10=Waiting on a Fantasy
TTITLE11=The Man I Used To Be
EXTD=
EXTT0=
EXTT1=
EXTT2=
EXTT3=
EXTT4=
EXTT5=
EXTT6=
EXTT7=
EXTT8=
EXTT9=
EXTT10=
EXTT11=
PLAYORDER=
